<svg xmlns="http://www.w3.org/2000/svg" xml:space="preserve" viewBox="0 0 188 31">
  <path fill="#1c1c1c" fill-rule="evenodd" d="M132.8 4.6s-1.2 7.3-1.4 8.6c-1.6 10-3.5 13-11 13.2-3.1.1-5-1.2-5.9-2.8-1.8 2-4.1 2.8-6.8 2.8-5 0-7-3-6.2-7.7l1.4-8.7c.1-.7 0-1-.8-1h-1.4l.8-4.4h3.8c3.6 0 4.9 1.7 4.2 5.3l-1.5 8.6c-.2 1.3-.3 2.7 1.5 2.7 1.4 0 2.5-1.1 2.9-3.1l2.3-13.4h6.7l-2.5 13.9c-.3 1.8.1 2.7 1.4 2.6 2.6 0 3-2.5 3.9-7.2.1-.6.2-1.3.4-2l1.2-7.4h7zM47.3 18l1.5-8.8H47c-3.9 0-5.3 5.9-5.3 9.2 0 1.8.7 3.2 2.4 3.2 1.5 0 2.6-1 3.2-3.6zm5.9 3.2c-.1.7 0 .9.9.9h1.4l-.7 4.3h-3.9c-2.5 0-3.3-1.1-3.4-2.7-1.2 2-3.6 2.7-5.9 2.7-4.9 0-6.5-3.3-6.5-7.4 0-8.3 4.4-14.5 13.4-14.5H56l-2.8 16.7zm-23.6-.1c-.1.6-.2 1 .6 1h1.6l-.7 4.3h-4.2c-3.3 0-4.5-1.5-4-4.9l1.4-8.7c.2-1.5.4-3-1.5-3-1.5 0-2.6 1.3-3.1 3.9l-2.1 12.5H11l2.3-13.4c.3-1.8.2-3-1.5-3-1.8 0-2.7 1.7-3.1 3.9L6.6 26.4H0l2.7-16.1V10c.1-.7 0-1-.8-1H.6l.8-4.4h4.1c3.9 0 4.2 2.6 4.1 3.2 1.5-2.2 3.8-3.2 6.1-3.2 2.1 0 4.2.9 4.7 3.3 1.5-2.2 3.4-3.3 6.2-3.3 3.9 0 5.4 2.3 4.6 7l-1.6 9.5zm35.6-3.8c0 2.3.9 3.8 3.2 3.8 1.7 0 3.7-.2 5.6-.8l-1 5.4c-2.4.6-4.2.7-6.5.7-5.3 0-8.4-2.8-8.4-8.2 0-9.6 6.4-13.6 13.6-13.7h4.8l-1 5.5h-3.7c-4.9 0-6.6 2.8-6.6 7.3zm25.4-8.1L89.2 18c-.6 2.6-1.7 3.6-3.3 3.6-1.7 0-2.4-1.4-2.4-3.2 0-3.3 1.4-9.2 5.3-9.2h1.8zM96 22.1c-.9 0-1-.2-.9-.9l2.7-16.6h-7.6c-8.9 0-13.4 6.2-13.4 14.5 0 4.1 1.6 7.4 6.5 7.4 2.3 0 4.8-.8 5.9-2.7.1 1.6 1.1 2.7 3.6 2.7h3.8l.7-4.3H96z" clip-rule="evenodd"/>
</svg>